<svg class="diagram-root" style="background: #f5f6f6" xmlns="http://www.w3.org/2000/svg" xmlns:xlink="http://www.w3.org/1999/xlink"><style>.diagram-root { font-family: "Helvetica Neue", sans-serif; font-size: 12px; } .t { overflow: visible; } .t-bg { y: 40; fill: #fff;   } .th { fill: #005aa0;   } .tht { fill: #fff; font-size: 14px;  } .tf { fill: #323c46; overflow: visible; } .tf.pk { fill: #005aa0; font-weight: bold; } .tf.fk { font-weight: bold; } .ty { fill: #adb1b5; font-weight: normal; text-anchor: end; } .r { fill: transparent; stroke: #c3c3c3; stroke-width: 1; } .l { stroke: 1; } .i { fill: #c2c7ce; stroke: #c2c7ce; } .i.ix { fill: #afb3b6; stroke: #000; } .fa { fill: transparent; overflow: visible; } .fa .bg.hover { fill: #f7f7f7; } .c { cy: 12; r: 4; stroke: #d2d2dc; fill: #d2d2dc; } .hr { fill: transparent; stroke: #323c46; stroke-opacity: 0.035; stroke-width: 13; } .dc { stroke: #fa5a3c; fill: #fa5a3c; } .x { stroke: white; stroke-width: 1; } .hl .th { fill: #1b9bff; } .hl .tht {  } .fhl .bg { fill: #e7f4ff; } .fhls .bg {  } .r.hl { stroke: #1b9bff; } .dim { opacity: 0.25; }</style><g class="drawing-wrapper" transform="translate(-45, -6) scale(1,1)"><g class="rs"><path d="M 384 553 m -1, 0 a 1,1 0 1,0 2,0 a 1,1 0 1,0 -2,0 M 384 553 m -0.5, 0 a 0.5,0.5 0 1,0 1,0 a 0.5,0.5 0 1,0 -1,0  M384 553 L384 553 372 553 M 384 559 m -1, 0 a 1,1 0 1,0 2,0 a 1,1 0 1,0 -2,0 M 384 559 m -0.5, 0 a 0.5,0.5 0 1,0 1,0 a 0.5,0.5 0 1,0 -1,0  M384 559 L384 559 377 553 384 547 M 384 547 m -1, 0 a 1,1 0 1,0 2,0 a 1,1 0 1,0 -2,0 M 384 547 m -0.5, 0 a 0.5,0.5 0 1,0 1,0 a 0.5,0.5 0 1,0 -1,0  M372 553 C 322 553, 320.2 228, 375 228 M 387 228 m -1, 0 a 1,1 0 1,0 2,0 a 1,1 0 1,0 -2,0 M 387 228 m -0.5, 0 a 0.5,0.5 0 1,0 1,0 a 0.5,0.5 0 1,0 -1,0  M387 228 L387 228 375 228 M381 234 L381 234 381 222" id="h1139284389" class="r"></path><path d="M 384 578 m -1, 0 a 1,1 0 1,0 2,0 a 1,1 0 1,0 -2,0 M 384 578 m -0.5, 0 a 0.5,0.5 0 1,0 1,0 a 0.5,0.5 0 1,0 -1,0  M384 578 L384 578 372 578 M 384 584 m -1, 0 a 1,1 0 1,0 2,0 a 1,1 0 1,0 -2,0 M 384 584 m -0.5, 0 a 0.5,0.5 0 1,0 1,0 a 0.5,0.5 0 1,0 -1,0  M384 584 L384 584 377 578 384 572 M 384 572 m -1, 0 a 1,1 0 1,0 2,0 a 1,1 0 1,0 -2,0 M 384 572 m -0.5, 0 a 0.5,0.5 0 1,0 1,0 a 0.5,0.5 0 1,0 -1,0  M372 578 Q 344.35 578, 316.7 354 T 261.4 130 M 249.4 130 m -1, 0 a 1,1 0 1,0 2,0 a 1,1 0 1,0 -2,0 M 249.4 130 m -0.5, 0 a 0.5,0.5 0 1,0 1,0 a 0.5,0.5 0 1,0 -1,0  M249.4 130 L249.4 130 261.4 130 M255.4 136 L255.4 136 255.4 124" id="h1607168654" class="r"></path><path d="M 656 93 m -1, 0 a 1,1 0 1,0 2,0 a 1,1 0 1,0 -2,0 M 656 93 m -0.5, 0 a 0.5,0.5 0 1,0 1,0 a 0.5,0.5 0 1,0 -1,0  M656 93 L656 93 644 93 M 656 99 m -1, 0 a 1,1 0 1,0 2,0 a 1,1 0 1,0 -2,0 M 656 99 m -0.5, 0 a 0.5,0.5 0 1,0 1,0 a 0.5,0.5 0 1,0 -1,0  M656 99 L656 99 649 93 656 87 M 656 87 m -1, 0 a 1,1 0 1,0 2,0 a 1,1 0 1,0 -2,0 M 656 87 m -0.5, 0 a 0.5,0.5 0 1,0 1,0 a 0.5,0.5 0 1,0 -1,0  M644 93 Q 548.35 93, 452.7 111.5 T 261.4 130 M 249.4 130 m -1, 0 a 1,1 0 1,0 2,0 a 1,1 0 1,0 -2,0 M 249.4 130 m -0.5, 0 a 0.5,0.5 0 1,0 1,0 a 0.5,0.5 0 1,0 -1,0  M249.4 130 L249.4 130 261.4 130 M255.4 136 L255.4 136 255.4 124" id="h1397587031" class="r"></path><path d="M 656 118 m -1, 0 a 1,1 0 1,0 2,0 a 1,1 0 1,0 -2,0 M 656 118 m -0.5, 0 a 0.5,0.5 0 1,0 1,0 a 0.5,0.5 0 1,0 -1,0  M656 118 L656 118 644 118 M 656 124 m -1, 0 a 1,1 0 1,0 2,0 a 1,1 0 1,0 -2,0 M 656 124 m -0.5, 0 a 0.5,0.5 0 1,0 1,0 a 0.5,0.5 0 1,0 -1,0  M656 124 L656 124 649 118 656 112 M 656 112 m -1, 0 a 1,1 0 1,0 2,0 a 1,1 0 1,0 -2,0 M 656 112 m -0.5, 0 a 0.5,0.5 0 1,0 1,0 a 0.5,0.5 0 1,0 -1,0  M644 118 Q 623.6 118, 603.19 173 T 562.38 228 M 550.38 228 m -1, 0 a 1,1 0 1,0 2,0 a 1,1 0 1,0 -2,0 M 550.38 228 m -0.5, 0 a 0.5,0.5 0 1,0 1,0 a 0.5,0.5 0 1,0 -1,0  M550.38 228 L550.38 228 562.38 228 M556.38 234 L556.38 234 556.38 222" id="h2286254435" class="r"></path><path d="M 725 288 m -1, 0 a 1,1 0 1,0 2,0 a 1,1 0 1,0 -2,0 M 725 288 m -0.5, 0 a 0.5,0.5 0 1,0 1,0 a 0.5,0.5 0 1,0 -1,0  M725 288 L725 288 713 288 M 725 294 m -1, 0 a 1,1 0 1,0 2,0 a 1,1 0 1,0 -2,0 M 725 294 m -0.5, 0 a 0.5,0.5 0 1,0 1,0 a 0.5,0.5 0 1,0 -1,0  M725 294 L725 294 718 288 725 282 M 725 282 m -1, 0 a 1,1 0 1,0 2,0 a 1,1 0 1,0 -2,0 M 725 282 m -0.5, 0 a 0.5,0.5 0 1,0 1,0 a 0.5,0.5 0 1,0 -1,0  M713 288 Q 675.35 288, 637.69 258 T 562.38 228 M 550.38 228 m -1, 0 a 1,1 0 1,0 2,0 a 1,1 0 1,0 -2,0 M 550.38 228 m -0.5, 0 a 0.5,0.5 0 1,0 1,0 a 0.5,0.5 0 1,0 -1,0  M550.38 228 L550.38 228 562.38 228 M556.38 234 L556.38 234 556.38 222" id="h3177548053" class="r"></path></g><g class="hrs"></g><g class="ts"><svg width="182.4" height="100" x="67" y="73" id="h475896179" class="t"><rect height="40" width="182.4" class="th"></rect><text x="13" y="25" class="tht">departments</text><rect height="60" width="182.4" class="t-bg"></rect><text x="13" y="61" class="tf pk">dept_no<tspan x="169.4" class="ty">varchar(30)</tspan></text><path d="M7,14A2,2 0 0,1 5,12A2,2 0 0,1 7,10A2,2 0 0,1 9,12A2,2 0 0,1 7,14M12.65,10C11.83,7.67 9.61,6 7, 6A6, 6 0 0, 0 1, 12A6, 6 0 0, 0 7, 18C9.61, 18 11.83, 16.33 12.65, 14H17V18H21V14H23V10H12.65Z" class="i pk" transform="translate(88.046484375, 48) scale(0.65)"></path><text x="13" y="86" class="tf">dept_name<tspan x="169.4" class="ty">varchar(35)</tspan></text><path d="M814.545 581.818v-23.273H535.273v-93.09h-46.546v93.09H209.455v139.637H256V605.09h232.727v93.09h46.546v-93.09H768v93.09h46.545V581.819zM674.91 465.455H349.091V139.636h325.818v325.819zM325.82 884.364H139.635V698.182h186.182v186.182z m279.272 0H418.909V698.182h186.182v186.182z m279.273 0H698.182V698.182h186.182v186.182zM395.636 418.909h232.728V186.182H395.636v232.727zM186.182 837.82h93.09v-93.092h-93.09v93.091z m279.273 0h93.09v-93.092h-93.09v93.091z m279.272 0h93.091v-93.092h-93.09v93.091z" class="i ix" transform="translate(93.046484375, 75) scale(0.014)"></path></svg><svg width="163.38" height="225" x="387" y="171" id="h1639608377" class="t"><rect height="40" width="163.38" class="th"></rect><text x="13" y="25" class="tht">employees</text><rect height="185" width="163.38" class="t-bg"></rect><text x="13" y="61" class="tf pk">emp_no<tspan x="150.38" class="ty">int</tspan></text><path d="M7,14A2,2 0 0,1 5,12A2,2 0 0,1 7,10A2,2 0 0,1 9,12A2,2 0 0,1 7,14M12.65,10C11.83,7.67 9.61,6 7, 6A6, 6 0 0, 0 1, 12A6, 6 0 0, 0 7, 18C9.61, 18 11.83, 16.33 12.65, 14H17V18H21V14H23V10H12.65Z" class="i pk" transform="translate(117.706171875, 48) scale(0.65)"></path><text x="13" y="86" class="tf">emp_title<tspan x="150.38" class="ty">varchar(35)</tspan></text><text x="13" y="111" class="tf">birth_date<tspan x="150.38" class="ty">date</tspan></text><text x="13" y="136" class="tf">first_name<tspan x="150.38" class="ty">varchar(35)</tspan></text><text x="13" y="161" class="tf">last_name<tspan x="150.38" class="ty">varchar(35)</tspan></text><text x="13" y="186" class="tf">sex<tspan x="150.38" class="ty">varchar(1)</tspan></text><text x="13" y="211" class="tf">hire_date<tspan x="150.38" class="ty">date</tspan></text></svg><svg width="150.73" height="100" x="384" y="496" id="h1090417462" class="t"><rect height="40" width="150.73" class="th"></rect><text x="13" y="25" class="tht">dept_emp</text><rect height="60" width="150.73" class="t-bg"></rect><text x="13" y="61" class="tf fk">emp_no<tspan x="137.73" class="ty">int</tspan></text><text x="13" y="86" class="tf fk">dept_no<tspan x="137.73" class="ty">varchar(30)</tspan></text></svg><svg width="150.73" height="100" x="656" y="36" id="h1676682957" class="t"><rect height="40" width="150.73" class="th"></rect><text x="13" y="25" class="tht">dept_manager</text><rect height="60" width="150.73" class="t-bg"></rect><text x="13" y="61" class="tf fk">dept_no<tspan x="137.73" class="ty">varchar(30)</tspan></text><text x="13" y="86" class="tf fk">emp_no<tspan x="137.73" class="ty">int</tspan></text></svg><svg width="102.04" height="100" x="725" y="231" id="h2472833127" class="t"><rect height="40" width="102.04" class="th"></rect><text x="13" y="25" class="tht">salaries</text><rect height="60" width="102.04" class="t-bg"></rect><text x="13" y="61" class="tf fk">emp_no<tspan x="89.04" class="ty">int</tspan></text><text x="13" y="86" class="tf">salary<tspan x="89.04" class="ty">int</tspan></text></svg><svg width="162.04" height="100" x="731" y="388" id="h311790747" class="t"><rect height="40" width="162.04" class="th"></rect><text x="13" y="25" class="tht">titles</text><rect height="60" width="162.04" class="t-bg"></rect><text x="13" y="61" class="tf pk">title_id<tspan x="149.04" class="ty">varchar(30)</tspan></text><path d="M7,14A2,2 0 0,1 5,12A2,2 0 0,1 7,10A2,2 0 0,1 9,12A2,2 0 0,1 7,14M12.65,10C11.83,7.67 9.61,6 7, 6A6, 6 0 0, 0 1, 12A6, 6 0 0, 0 7, 18C9.61, 18 11.83, 16.33 12.65, 14H17V18H21V14H23V10H12.65Z" class="i pk" transform="translate(67.68648437499999, 48) scale(0.65)"></path><text x="13" y="86" class="tf">title<tspan x="149.04" class="ty">varchar(35)</tspan></text></svg></g></g><text class="qdbd-link" x="10" y="20">www.quickdatabasediagrams.com</text></svg>